<svg width="64" height="64" viewBox="0 0 64 64" fill="none" xmlns="http://www.w3.org/2000/svg">
<path d="M57.2566 31.3399C58.2339 31.4587 58.2367 32.8812 57.26 33.0042L55.5417 33.2202C55.0442 33.2828 54.6042 32.8935 54.6031 32.3899L54.6023 31.9648C54.6015 31.4609 55.0397 31.0702 55.5375 31.1306L57.2566 31.3399Z" fill="white"/>
<path d="M56.9246 36.3531C57.8596 36.6631 57.5833 38.0585 56.6016 37.9855L54.8747 37.8575C54.3747 37.8204 54.0196 37.352 54.1176 36.8579L54.1999 36.4409C54.2979 35.9468 54.8043 35.6502 55.2804 35.8081L56.9246 36.3531Z" fill="white"/>
<path d="M55.7966 40.7062C56.6622 41.1771 56.1452 42.5013 55.1916 42.2559L53.5143 41.8236C53.0287 41.6986 52.7616 41.1743 52.9447 40.7054L53.0991 40.3097C53.2822 39.8407 53.8326 39.6386 54.2737 39.8784L55.7966 40.7062Z" fill="white"/>
<path d="M54.0822 44.5049C54.8594 45.1116 54.1334 46.3329 53.233 45.9338L51.6488 45.2318C51.19 45.0286 51.0119 44.4677 51.269 44.0351L51.4861 43.6701C51.7429 43.2374 52.3189 43.1284 52.7151 43.4376L54.0822 44.5049Z" fill="white"/>
<path d="M51.0264 48.3871C51.692 49.1154 50.7734 50.1981 49.9517 49.6537L48.5064 48.6959C48.0876 48.4187 48.0056 47.8357 48.3308 47.4522L48.6052 47.1286C48.9305 46.7452 49.5168 46.7345 49.8557 47.1057L51.0264 48.3871Z" fill="white"/>
<path d="M47.5876 51.8026C48.1238 52.6318 47.0389 53.5465 46.3188 52.8729L45.0516 51.6877C44.6845 51.3442 44.6996 50.7559 45.0836 50.432L45.408 50.1584C45.792 49.8345 46.3716 49.9217 46.6449 50.344L47.5876 51.8026Z" fill="white"/>
<path d="M43.2757 54.502C43.5604 55.4486 42.2651 56.0235 41.76 55.1747L40.8718 53.6817C40.6147 53.2494 40.7925 52.6885 41.2511 52.4848L41.6384 52.3129C42.0973 52.1094 42.6299 52.3551 42.7748 52.8375L43.2757 54.502Z" fill="white"/>
<path d="M37.7244 56.1559C37.8009 57.1414 36.4129 57.4245 36.1004 56.4871L35.5511 54.8379C35.392 54.36 35.685 53.8503 36.1767 53.7502L36.5916 53.6655C37.083 53.5652 37.551 53.9199 37.59 54.4221L37.7244 56.1559Z" fill="white"/>
<path d="M32.0064 57.0302C31.8906 58.012 30.4743 58.0187 30.3493 57.038L30.1295 55.3131C30.0661 54.8134 30.4523 54.3707 30.9537 54.3681L31.377 54.3662C31.8787 54.364 32.2691 54.803 32.2101 55.3033L32.0064 57.0302Z" fill="white"/>
<path d="M25.9251 56.2197C25.6189 57.1593 24.2291 56.8854 24.2991 55.8991L24.4223 54.1644C24.458 53.6622 24.9235 53.3045 25.4157 53.4014L25.8311 53.4833C26.3232 53.5803 26.6198 54.0881 26.4637 54.5669L25.9251 56.2197Z" fill="white"/>
<path d="M20.1367 54.0437C19.6074 54.8774 18.3291 54.265 18.641 53.3271L19.1899 51.6776C19.3488 51.2 19.8883 50.97 20.341 51.1869L20.7231 51.3699C21.1758 51.5868 21.3372 52.1527 21.0676 52.5773L20.1367 54.0437Z" fill="white"/>
<path d="M16.3776 51.6924C15.7022 52.4115 14.5607 51.5695 15.0421 50.707L15.8889 49.19C16.1342 48.7507 16.707 48.6263 17.1112 48.9245L17.4525 49.176C17.8567 49.4742 17.9097 50.0606 17.5656 50.427L16.3776 51.6924Z" fill="white"/>
<path d="M13.1496 49.1663C12.3414 49.7308 11.3968 48.6707 12.0445 47.9262L13.1839 46.6166C13.5139 46.2373 14.1 46.2337 14.4345 46.609L14.7169 46.926C15.0513 47.3013 14.9831 47.886 14.5714 48.1736L13.1496 49.1663Z" fill="white"/>
<path d="M10.8553 46.0794C9.95951 46.4894 9.21917 45.2768 9.98915 44.6608L11.3436 43.5773C11.7359 43.2634 12.3132 43.3654 12.5754 43.7947L12.7967 44.1575C13.0588 44.5868 12.8875 45.1499 12.4311 45.3587L10.8553 46.0794Z" fill="white"/>
<path d="M8.7869 42.2213C7.83427 42.4703 7.31261 41.1478 8.17656 40.6741L9.69634 39.8407C10.1365 39.5992 10.6878 39.7993 10.8725 40.2677L11.0284 40.6632C11.2131 41.1313 10.948 41.6565 10.4626 41.7833L8.7869 42.2213Z" fill="white"/>
<path d="M7.44378 38.2035C6.46319 38.2902 6.16784 36.8987 7.09824 36.5759L8.73488 36.008C9.20893 35.8436 9.71931 36.1332 9.82388 36.6256L9.91218 37.0415C10.0167 37.5342 9.66831 38.0076 9.16869 38.0518L7.44378 38.2035Z" fill="white"/>
<path d="M6.72626 32.9907C5.74929 32.8697 5.74929 31.4472 6.72626 31.3265L8.44483 31.1138C8.94258 31.0523 9.38165 31.4422 9.38165 31.9461V32.3711C9.38165 32.8748 8.94258 33.2649 8.44483 33.2034L6.72626 32.9907Z" fill="white"/>
<path d="M7.06031 27.9767C6.12619 27.6649 6.40512 26.2703 7.38666 26.345L9.11327 26.4765C9.61333 26.5146 9.96733 26.9838 9.86858 27.4777L9.78518 27.8946C9.68643 28.3883 9.17946 28.684 8.70353 28.525L7.06031 27.9767Z" fill="white"/>
<path d="M8.18649 23.6231C7.32177 23.1507 7.84139 21.8273 8.79441 22.0749L10.4708 22.5103C10.9563 22.6365 11.2223 23.1611 11.0384 23.6297L10.883 24.0252C10.699 24.4938 10.1481 24.6948 9.70755 24.4541L8.18649 23.6231Z" fill="white"/>
<path d="M9.89902 19.8238C9.12298 19.2156 9.8513 17.9955 10.7511 18.3964L12.3339 19.1016C12.7923 19.3059 12.9692 19.8672 12.7113 20.2992L12.4936 20.6639C12.2357 21.0959 11.6595 21.2036 11.2641 20.8937L9.89902 19.8238Z" fill="white"/>
<path d="M12.2584 16.2937C11.5943 15.5639 12.5151 14.4831 13.3357 15.0291L14.7791 15.9897C15.1972 16.268 15.2784 16.851 14.9523 17.2337L14.6771 17.5568C14.351 17.9396 13.7649 17.9492 13.4266 17.5774L12.2584 16.2937Z" fill="white"/>
<path d="M15.1517 13.2261C14.6173 12.3958 15.7038 11.4832 16.4228 12.1585L17.6877 13.3462C18.054 13.6902 18.0378 14.2787 17.653 14.6018L17.3283 14.8746C16.9435 15.1977 16.364 15.1096 16.0917 14.6866L15.1517 13.2261Z" fill="white"/>
<path d="M18.8152 10.4935C18.4381 9.58021 19.6703 8.87872 20.2568 9.67274L21.2884 11.0695C21.5872 11.4741 21.4659 12.05 21.0296 12.2984L20.6612 12.5081C20.2249 12.7565 19.6706 12.5652 19.4785 12.0999L18.8152 10.4935Z" fill="white"/>
<path d="M24.0963 8.04106C23.9371 7.06541 25.2964 6.66545 25.6865 7.5731L26.3729 9.16978C26.5717 9.63222 26.3225 10.1651 25.8412 10.3067L25.4349 10.4263C24.9536 10.5679 24.4575 10.2543 24.3764 9.75726L24.0963 8.04106Z" fill="white"/>
<path d="M30.1604 6.83684C30.2417 5.85157 31.6569 5.79484 31.8161 6.77049L32.0963 8.4867C32.1772 8.98377 31.8069 9.43996 31.3057 9.46005L30.8825 9.47702C30.3816 9.49709 29.9759 9.072 30.0174 8.57001L30.1604 6.83684Z" fill="white"/>
<path d="M36.0977 7.10633C36.4057 6.16735 37.7951 6.44403 37.723 7.43002L37.5964 9.16448C37.5597 9.66686 37.0933 10.0236 36.6013 9.9256L36.1862 9.84291C35.6942 9.74492 35.3987 9.2365 35.5556 8.75809L36.0977 7.10633Z" fill="white"/>
<path d="M42.1715 8.91772C42.7022 8.08519 43.9794 8.70017 43.6655 9.63723L43.1134 11.2856C42.9537 11.763 42.4136 11.992 41.9614 11.7743L41.5797 11.5905C41.1275 11.3727 40.9672 10.8064 41.2377 10.3823L42.1715 8.91772Z" fill="white"/>
<path d="M46.3266 11.2442C47.0033 10.5263 48.1433 11.3707 47.6603 12.2321L46.8105 13.7474C46.5642 14.1862 45.991 14.3096 45.5875 14.0106L45.2469 13.7582C44.8431 13.4592 44.7914 12.8728 45.1362 12.507L46.3266 11.2442Z" fill="white"/>
<path d="M50.3037 14.6526C51.1132 14.0899 52.0556 15.1517 51.4065 15.8949L50.2645 17.2022C49.9336 17.5808 49.3476 17.5832 49.0137 17.2072L48.7321 16.8898C48.3985 16.5137 48.4677 15.9292 48.8801 15.6425L50.3037 14.6526Z" fill="white"/>
<path d="M53.1292 18.2287C54.0257 17.8206 54.7637 19.0349 53.9926 19.6493L52.6358 20.73C52.2429 21.0431 51.6658 20.9399 51.4045 20.51L51.1841 20.1471C50.9228 19.7171 51.0951 19.1544 51.552 18.9465L53.1292 18.2287Z" fill="white"/>
<path d="M55.1994 22.0865C56.1525 21.8394 56.6717 23.1629 55.8066 23.635L54.2853 24.4654C53.8446 24.7059 53.2939 24.5046 53.11 24.036L52.955 23.6403C52.7711 23.1716 53.0373 22.6472 53.5229 22.5212L55.1994 22.0865Z" fill="white"/>
<path d="M56.5446 26.1043C57.5254 26.0198 57.8179 27.4117 56.8871 27.7327L55.2493 28.2972C54.7748 28.4607 54.265 28.1703 54.1615 27.6774L54.0739 27.2614C53.9704 26.7685 54.3199 26.2958 54.8193 26.2528L56.5446 26.1043Z" fill="white"/>
<path d="M50.6307 29.421C50.6307 30.0384 51.129 30.5389 51.7437 30.5389C52.3584 30.5389 52.8568 30.0384 52.8568 29.421C52.8568 28.8036 52.3584 28.3031 51.7437 28.3031C51.129 28.3031 50.6307 28.8036 50.6307 29.421Z" fill="white"/>
<path d="M46.1785 22.993C46.1785 23.4561 46.5523 23.8315 47.0133 23.8315C47.4743 23.8315 47.8481 23.4561 47.8481 22.993C47.8481 22.53 47.4743 22.1546 47.0133 22.1546C46.5523 22.1546 46.1785 22.53 46.1785 22.993Z" fill="white"/>
<path d="M40.0568 19.2201C40.0568 19.606 40.3682 19.9188 40.7524 19.9188C41.1366 19.9188 41.4481 19.606 41.4481 19.2201C41.4481 18.8342 41.1366 18.5214 40.7524 18.5214C40.3682 18.5214 40.0568 18.8342 40.0568 19.2201Z" fill="white"/>
<path d="M19.4654 20.4777C19.4654 20.9408 19.8391 21.3162 20.3002 21.3162C20.7612 21.3162 21.1349 20.9408 21.1349 20.4777C21.1349 20.0147 20.7612 19.6393 20.3002 19.6393C19.8391 19.6393 19.4654 20.0147 19.4654 20.4777Z" fill="white"/>
<path d="M18.6306 18.2419C18.6306 18.5506 18.8798 18.8009 19.1871 18.8009C19.4945 18.8009 19.7437 18.5506 19.7437 18.2419C19.7437 17.9332 19.4945 17.683 19.1871 17.683C18.8798 17.683 18.6306 17.9332 18.6306 18.2419Z" fill="white"/>
<path fill-rule="evenodd" clip-rule="evenodd" d="M25.3088 32.076C25.3088 35.7033 28.2365 38.6437 31.8481 38.6437C35.4593 38.6437 38.3872 35.7033 38.3872 32.076C38.3872 28.4487 35.4593 25.5083 31.8481 25.5083C28.2365 25.5083 25.3088 28.4487 25.3088 32.076ZM28.0915 32.076C28.0915 34.1598 29.7733 35.8489 31.8481 35.8489C33.9228 35.8489 35.6046 34.1598 35.6046 32.076C35.6046 29.9922 33.9228 28.3031 31.8481 28.3031C29.7733 28.3031 28.0915 29.9922 28.0915 32.076Z" fill="white"/>
<path fill-rule="evenodd" clip-rule="evenodd" d="M18.9089 31.9363C18.9089 38.8821 24.5151 44.5127 31.4307 44.5127C38.346 44.5127 43.9524 38.8821 43.9524 31.9363C43.9524 24.9905 38.346 19.3598 31.4307 19.3598C24.5151 19.3598 18.9089 24.9905 18.9089 31.9363ZM20.3002 32.076C20.3002 38.3271 25.3457 43.3948 31.5698 43.3948C37.7937 43.3948 42.8394 38.3271 42.8394 32.076C42.8394 25.8248 37.7937 20.7572 31.5698 20.7572C25.3457 20.7572 20.3002 25.8248 20.3002 32.076Z" fill="white"/>
<path d="M17.9139 32.197C17.6762 32.1051 17.6762 31.7675 17.9139 31.6755L19.3654 31.1143C19.5477 31.0439 19.7436 31.1789 19.7436 31.3751V32.4975C19.7436 32.6937 19.5477 32.8286 19.3654 32.7582L17.9139 32.197Z" fill="white"/>
<path d="M31.4491 18.0812C31.5406 17.8424 31.877 17.8424 31.9686 18.0812L32.5273 19.5389C32.5974 19.722 32.4628 19.9188 32.2674 19.9188H31.1502C30.9549 19.9188 30.8205 19.722 30.8906 19.5389L31.4491 18.0812Z" fill="white"/>
<path d="M35.0283 18.4857C35.1783 18.2789 35.5033 18.3663 35.53 18.6208L35.6939 20.1741C35.7145 20.3692 35.5339 20.5243 35.3453 20.4735L34.2662 20.1831C34.0775 20.1323 33.9982 19.9072 34.1131 19.7486L35.0283 18.4857Z" fill="white"/>
<path d="M38.3814 19.807C38.5795 19.6461 38.8708 19.815 38.8313 20.0678L38.5892 21.6108C38.5589 21.8046 38.3443 21.9074 38.1752 21.8094L37.2077 21.2483C37.0385 21.1502 37.0198 20.9122 37.1718 20.7889L38.3814 19.807Z" fill="white"/>
<path d="M40.4444 21.2098C40.6678 21.0873 40.9241 21.3061 40.8401 21.5476L40.3258 23.0218C40.2613 23.2069 40.0317 23.2694 39.8828 23.1423L39.0316 22.4156C38.8828 22.2886 38.907 22.0511 39.0787 21.9573L40.4444 21.2098Z" fill="white"/>
<path d="M42.1167 22.8391C42.358 22.7563 42.5739 23.0152 42.4504 23.2391L41.6966 24.6053C41.602 24.7769 41.3651 24.7996 41.2399 24.6493L40.5223 23.789C40.3968 23.6387 40.4608 23.4087 40.6456 23.3452L42.1167 22.8391Z" fill="white"/>
<path d="M43.6141 24.9321C43.8662 24.8955 44.0306 25.1902 43.8681 25.3871L42.8753 26.5895C42.7506 26.7405 42.5141 26.7189 42.4184 26.5478L41.8719 25.569C41.7764 25.3979 41.8816 25.1838 42.0747 25.1557L43.6141 24.9321Z" fill="white"/>
<path d="M44.2201 26.9208C44.475 26.9234 44.5924 27.2399 44.4018 27.4095L43.237 28.4448C43.0909 28.5747 42.8602 28.5169 42.792 28.333L42.4014 27.2817C42.3332 27.0979 42.4698 26.9025 42.6652 26.9045L44.2201 26.9208Z" fill="white"/>
<path d="M45.1834 28.9568C45.4347 29.0001 45.5007 29.3313 45.2856 29.4682L43.9722 30.305C43.8074 30.4101 43.5887 30.3164 43.5503 30.1239L43.3308 29.0236C43.2924 28.8313 43.4579 28.6603 43.6505 28.6932L45.1834 28.9568Z" fill="white"/>
<path d="M45.3037 34.3015C45.5199 34.437 45.4562 34.7688 45.2054 34.8138L43.6745 35.0888C43.4822 35.1234 43.3152 34.9535 43.3522 34.7609L43.5637 33.659C43.6007 33.4664 43.8186 33.3708 43.9842 33.4748L45.3037 34.3015Z" fill="white"/>
<path d="M44.6428 36.7612C44.8306 36.9342 44.7076 37.2486 44.4528 37.2469L42.8976 37.2357C42.7025 37.2343 42.5692 37.0367 42.6407 36.8539L43.0492 35.8095C43.1207 35.627 43.3522 35.5734 43.4964 35.7059L44.6428 36.7612Z" fill="white"/>
<path d="M43.431 39.2451C43.5809 39.4522 43.3981 39.7356 43.1488 39.6831L41.6267 39.3622C41.4355 39.322 41.3443 39.1015 41.4503 38.9369L42.0575 37.9947C42.1635 37.8301 42.4011 37.8234 42.516 37.9822L43.431 39.2451Z" fill="white"/>
<path d="M20.9711 18.0956C27.7885 12.5062 39.4755 13.3446 45.7363 21.0302" stroke="white" stroke-miterlimit="4.62023" stroke-linecap="round"/>
<path d="M49.2146 28.097C51.5798 61.7742 1.91028 52.1322 16.7973 21.3897" stroke="white" stroke-miterlimit="4.62023" stroke-linecap="round"/>
<path d="M41.4893 41.7107C41.5889 41.9463 41.3471 42.181 41.1161 42.0734L39.7053 41.4161C39.5281 41.3336 39.4883 41.0983 39.6288 40.9619L40.4316 40.1814C40.5718 40.045 40.805 40.0925 40.8813 40.273L41.4893 41.7107Z" fill="white"/>
<path d="M38.6474 43.9141C38.6833 44.1673 38.3894 44.3316 38.1938 44.1678L36.9995 43.1673C36.8495 43.0415 36.8718 42.804 37.0423 42.7084L38.0185 42.1623C38.1891 42.067 38.4019 42.1732 38.4295 42.3674L38.6474 43.9141Z" fill="white"/>
<path d="M35.8539 45.1538C35.833 45.4087 35.5105 45.5043 35.3555 45.3011L34.4097 44.0611C34.2909 43.9054 34.3647 43.6785 34.5519 43.6231L35.6238 43.3062C35.8113 43.2506 35.9955 43.4012 35.9797 43.5969L35.8539 45.1538Z" fill="white"/>
<path d="M45.5037 31.6755C45.7413 31.7675 45.7413 32.1051 45.5037 32.197L44.0523 32.7582C43.87 32.8286 43.6741 32.6937 43.6741 32.4975V31.3751C43.6741 31.1789 43.87 31.0439 44.0523 31.1143L45.5037 31.6755Z" fill="white"/>
<path d="M31.9686 45.7913C31.877 46.0303 31.5406 46.0303 31.4491 45.7913L30.8906 44.3336C30.8205 44.1505 30.9549 43.9538 31.1502 43.9538H32.2674C32.4628 43.9538 32.5974 44.1505 32.5273 44.3336L31.9686 45.7913Z" fill="white"/>
<path d="M28.3893 45.3869C28.2393 45.5937 27.9146 45.5062 27.8876 45.2519L27.7237 43.6983C27.7031 43.5035 27.8837 43.3481 28.0723 43.399L29.1517 43.6894C29.3404 43.7402 29.4194 43.9652 29.3045 44.1239L28.3893 45.3869Z" fill="white"/>
<path d="M25.0363 44.0655C24.8382 44.2265 24.5469 44.0574 24.5865 43.8048L24.8285 42.2618C24.8588 42.0678 25.0733 41.965 25.2425 42.0631L26.2101 42.6243C26.3792 42.7224 26.3978 42.9602 26.2459 43.0837L25.0363 44.0655Z" fill="white"/>
<path d="M22.9735 42.6628C22.7498 42.7853 22.4935 42.5664 22.5777 42.325L23.0919 40.8507C23.1565 40.6657 23.3859 40.6031 23.5347 40.7303L24.3861 41.4569C24.535 41.5841 24.5106 41.8213 24.3391 41.9152L22.9735 42.6628Z" fill="white"/>
<path d="M21.3008 41.0335C21.0598 41.1162 20.8439 40.8574 20.9673 40.6336L21.7212 39.2672C21.8159 39.0956 22.0525 39.073 22.1779 39.2233L22.8954 40.0836C23.0208 40.2339 22.957 40.4639 22.7722 40.5274L21.3008 41.0335Z" fill="white"/>
<path d="M19.8037 38.9405C19.5516 38.9771 19.387 38.6823 19.5497 38.4855L20.5424 37.2829C20.667 37.132 20.9038 37.1535 20.9993 37.3246L21.5458 38.3036C21.6413 38.4746 21.5362 38.6887 21.3429 38.7169L19.8037 38.9405Z" fill="white"/>
<path d="M18.2342 34.9158C17.9831 34.8724 17.917 34.5413 18.1321 34.4043L19.4454 33.5676C19.6103 33.4625 19.8289 33.5561 19.8673 33.7487L20.0869 34.849C20.1253 35.0412 19.9596 35.2123 19.7671 35.1793L18.2342 34.9158Z" fill="white"/>
<path d="M18.6058 37.1133C18.3513 37.1228 18.2189 36.8123 18.4014 36.634L19.5157 35.5443C19.6557 35.4074 19.8888 35.454 19.9656 35.6346L20.4055 36.6661C20.4823 36.8464 20.3552 37.0482 20.16 37.0554L18.6058 37.1133Z" fill="white"/>
<path d="M18.114 29.5711C17.8979 29.4355 17.9615 29.1038 18.2123 29.0588L19.7432 28.7835C19.9355 28.7491 20.1024 28.9191 20.0654 29.1116L19.854 30.2136C19.8171 30.4061 19.5992 30.5017 19.4335 30.3978L18.114 29.5711Z" fill="white"/>
<path d="M18.7748 27.1113C18.587 26.9384 18.7101 26.624 18.9648 26.6258L20.52 26.6368C20.7153 26.6382 20.8485 26.8359 20.777 27.0185L20.3684 28.063C20.2969 28.2455 20.0653 28.2992 19.9214 28.1667L18.7748 27.1113Z" fill="white"/>
<path d="M19.9867 24.6273C19.8368 24.4204 20.0196 24.1368 20.2689 24.1894L21.7909 24.5104C21.9821 24.5507 22.0735 24.7711 21.9674 24.9357L21.3603 25.8778C21.2542 26.0425 21.0166 26.0491 20.9017 25.8904L19.9867 24.6273Z" fill="white"/>
<path d="M21.9284 22.1619C21.8288 21.9264 22.0705 21.6914 22.3016 21.7991L23.7125 22.4564C23.8897 22.5389 23.9293 22.7743 23.7889 22.9107L22.986 23.6912C22.8457 23.8276 22.6128 23.7801 22.5364 23.5996L21.9284 22.1619Z" fill="white"/>
<path d="M24.7702 19.9585C24.7345 19.7052 25.0283 19.5408 25.2239 19.7047L26.4182 20.7053C26.5682 20.831 26.546 21.0687 26.3754 21.1641L25.3992 21.7101C25.2286 21.8055 25.0157 21.6993 24.9883 21.5051L24.7702 19.9585Z" fill="white"/>
<path d="M27.5639 18.7188C27.5845 18.4638 27.9074 18.3684 28.0621 18.5715L29.0079 19.8115C29.1267 19.9672 29.053 20.1941 28.8657 20.2495L27.7938 20.5665C27.6065 20.6219 27.4221 20.4712 27.4379 20.2757L27.5639 18.7188Z" fill="white"/>
</svg>
