<svg width="16" height="16" viewBox="0 0 16 16" fill="none" xmlns="http://www.w3.org/2000/svg">
<path d="M14.3142 7.83497C14.5585 7.86466 14.5592 8.2203 14.315 8.25104L13.8854 8.30505C13.761 8.3207 13.6511 8.22337 13.6508 8.09747L13.6506 7.9912C13.6504 7.86522 13.7599 7.76755 13.8844 7.78264L14.3142 7.83497Z" fill="white"/>
<path d="M14.2312 9.08827C14.4649 9.16576 14.3958 9.51461 14.1504 9.49638L13.7187 9.46438C13.5937 9.45508 13.5049 9.33798 13.5294 9.21446L13.55 9.11021C13.5745 8.98668 13.7011 8.91255 13.8201 8.95203L14.2312 9.08827Z" fill="white"/>
<path d="M13.9491 10.1765C14.1656 10.2943 14.0363 10.6253 13.7979 10.564L13.3786 10.4559C13.2572 10.4247 13.1904 10.2936 13.2362 10.1763L13.2748 10.0774C13.3206 9.96016 13.4582 9.90965 13.5684 9.9696L13.9491 10.1765Z" fill="white"/>
<path d="M13.5205 11.1262C13.7148 11.2779 13.5333 11.5832 13.3082 11.4835L12.9122 11.308C12.7975 11.2572 12.7529 11.1169 12.8172 11.0088L12.8715 10.9175C12.9357 10.8094 13.0797 10.7821 13.1788 10.8594L13.5205 11.1262Z" fill="white"/>
<path d="M12.7566 12.0968C12.923 12.2788 12.6934 12.5495 12.4879 12.4134L12.1266 12.174C12.0219 12.1047 12.0014 11.9589 12.0827 11.863L12.1513 11.7821C12.2326 11.6863 12.3792 11.6836 12.4639 11.7764L12.7566 12.0968Z" fill="white"/>
<path d="M11.8969 12.9506C12.031 13.1579 11.7597 13.3866 11.5797 13.2182L11.2629 12.9219C11.1711 12.836 11.1749 12.689 11.2709 12.608L11.352 12.5396C11.448 12.4586 11.5929 12.4804 11.6612 12.586L11.8969 12.9506Z" fill="white"/>
<path d="M10.8189 13.6255C10.8901 13.8622 10.5662 14.0059 10.44 13.7937L10.2179 13.4204C10.1537 13.3124 10.1981 13.1721 10.3128 13.1212L10.4096 13.0782C10.5243 13.0274 10.6575 13.0888 10.6937 13.2094L10.8189 13.6255Z" fill="white"/>
<path d="M9.43108 14.039C9.45021 14.2854 9.10321 14.3561 9.02509 14.1218L8.88777 13.7095C8.84798 13.59 8.92123 13.4626 9.04415 13.4376L9.14788 13.4164C9.27073 13.3913 9.38774 13.48 9.39748 13.6055L9.43108 14.039Z" fill="white"/>
<path d="M8.00163 14.2575C7.97269 14.503 7.6186 14.5047 7.58737 14.2595L7.53241 13.8283C7.51655 13.7033 7.61311 13.5927 7.73846 13.592L7.84427 13.5916C7.9697 13.591 8.0673 13.7008 8.05255 13.8258L8.00163 14.2575Z" fill="white"/>
<path d="M6.48125 14.0549C6.4047 14.2898 6.05723 14.2213 6.07474 13.9748L6.10553 13.5411C6.11446 13.4155 6.23085 13.3261 6.35389 13.3504L6.45775 13.3708C6.58078 13.3951 6.65491 13.522 6.6159 13.6417L6.48125 14.0549Z" fill="white"/>
<path d="M5.03414 13.5109C4.90183 13.7193 4.58223 13.5663 4.66023 13.3318L4.79743 12.9194C4.83717 12.8 4.97205 12.7425 5.08522 12.7967L5.18075 12.8425C5.29391 12.8967 5.33428 13.0382 5.26687 13.1443L5.03414 13.5109Z" fill="white"/>
<path d="M4.0944 12.9231C3.92556 13.1029 3.64018 12.8924 3.76053 12.6768L3.97223 12.2975C4.03354 12.1877 4.17676 12.1566 4.27781 12.2311L4.36311 12.294C4.46416 12.3686 4.47742 12.5151 4.3914 12.6067L4.0944 12.9231Z" fill="white"/>
<path d="M3.28743 12.2916C3.08538 12.4327 2.84923 12.1677 3.01116 11.9816L3.296 11.6541C3.3785 11.5593 3.52504 11.5584 3.60866 11.6523L3.67925 11.7315C3.76286 11.8253 3.74581 11.9715 3.64287 12.0434L3.28743 12.2916Z" fill="white"/>
<path d="M2.71382 11.5199C2.48988 11.6223 2.30479 11.3192 2.49729 11.1652L2.8359 10.8943C2.93398 10.8159 3.0783 10.8414 3.14384 10.9487L3.19917 11.0394C3.2647 11.1467 3.22186 11.2875 3.10776 11.3397L2.71382 11.5199Z" fill="white"/>
<path d="M2.19671 10.5553C1.95855 10.6176 1.82814 10.2869 2.04412 10.1685L2.42407 9.96017C2.53411 9.8998 2.67193 9.94983 2.71811 10.0669L2.75709 10.1658C2.80327 10.2828 2.73697 10.4141 2.61564 10.4458L2.19671 10.5553Z" fill="white"/>
<path d="M1.86098 9.55087C1.61583 9.57253 1.54199 9.22465 1.77459 9.14395L2.18375 9.00198C2.30226 8.96089 2.42986 9.03328 2.456 9.15639L2.47807 9.26035C2.50422 9.38353 2.41711 9.50189 2.2922 9.51293L1.86098 9.55087Z" fill="white"/>
<path d="M1.68153 8.24769C1.43729 8.21744 1.43729 7.86181 1.68153 7.83162L2.11118 7.77845C2.23561 7.76308 2.34538 7.86055 2.34538 7.98652V8.09279C2.34538 8.2187 2.23561 8.31624 2.11118 8.30086L1.68153 8.24769Z" fill="white"/>
<path d="M1.76511 6.99418C1.53158 6.91625 1.60131 6.56758 1.84669 6.58626L2.27835 6.61914C2.40336 6.62866 2.49186 6.74596 2.46717 6.86943L2.44633 6.97365C2.42164 7.0971 2.2949 7.17102 2.17591 7.13126L1.76511 6.99418Z" fill="white"/>
<path d="M2.04661 5.90578C1.83043 5.78767 1.96033 5.45684 2.19859 5.51872L2.61768 5.62758C2.73907 5.65911 2.80557 5.79026 2.75957 5.90741L2.72074 6.00631C2.67474 6.12346 2.53701 6.17371 2.42687 6.11353L2.04661 5.90578Z" fill="white"/>
<path d="M2.47477 4.95597C2.28076 4.80391 2.46284 4.4989 2.68779 4.59913L3.08349 4.77543C3.19809 4.82649 3.24232 4.96681 3.17785 5.07482L3.12342 5.16599C3.05895 5.27399 2.91489 5.30093 2.81604 5.22345L2.47477 4.95597Z" fill="white"/>
<path d="M3.06458 4.07342C2.89856 3.89098 3.12876 3.62076 3.3339 3.75728L3.69476 3.99743C3.79928 4.067 3.81958 4.21276 3.73806 4.30844L3.66925 4.38921C3.58774 4.4849 3.44122 4.48731 3.35663 4.39435L3.06458 4.07342Z" fill="white"/>
<path d="M3.78789 3.30653C3.65429 3.09896 3.92592 2.87083 4.10568 3.03963L4.42188 3.33656C4.51347 3.42257 4.50942 3.56969 4.41323 3.65047L4.33203 3.71866C4.23585 3.79945 4.09096 3.77742 4.02289 3.67166L3.78789 3.30653Z" fill="white"/>
<path d="M4.70383 2.62336C4.60956 2.39505 4.91761 2.21968 5.06422 2.41819L5.32212 2.76738C5.39682 2.86852 5.3665 3.01251 5.25743 3.07461L5.16534 3.12703C5.05626 3.18913 4.91768 3.14129 4.86965 3.02498L4.70383 2.62336Z" fill="white"/>
<path d="M6.0241 2.01025C5.9843 1.76634 6.32411 1.66635 6.42165 1.89326L6.59323 2.29243C6.64294 2.40804 6.58063 2.54125 6.46031 2.57666L6.35874 2.60655C6.23842 2.64196 6.1144 2.56357 6.09411 2.4393L6.0241 2.01025Z" fill="white"/>
<path d="M7.54009 1.70922C7.5604 1.4629 7.91421 1.44872 7.954 1.69263L8.02405 2.12168C8.0443 2.24595 7.9517 2.36 7.82642 2.36502L7.72061 2.36926C7.59539 2.37428 7.49397 2.26801 7.50433 2.14251L7.54009 1.70922Z" fill="white"/>
<path d="M9.02444 1.77657C9.10145 1.54182 9.44879 1.61099 9.43077 1.85749L9.39912 2.2911C9.38993 2.4167 9.27334 2.50587 9.15035 2.48139L9.04656 2.46071C8.92357 2.43622 8.84969 2.30911 8.88892 2.18951L9.02444 1.77657Z" fill="white"/>
<path d="M10.5429 2.22944C10.6756 2.0213 10.9949 2.17505 10.9164 2.40931L10.7784 2.8214C10.7384 2.94076 10.6034 2.99802 10.4904 2.94358L10.3949 2.89762C10.2819 2.84318 10.2418 2.70161 10.3094 2.59557L10.5429 2.22944Z" fill="white"/>
<path d="M11.5816 2.81106C11.7508 2.63158 12.0358 2.84269 11.9151 3.05804L11.7026 3.43686C11.641 3.54658 11.4977 3.57742 11.3969 3.50268L11.3117 3.43957C11.2108 3.36482 11.1978 3.21822 11.284 3.12678L11.5816 2.81106Z" fill="white"/>
<path d="M12.5759 3.66314C12.7783 3.52246 13.0139 3.78792 12.8516 3.97371L12.5661 4.30054C12.4834 4.3952 12.3369 4.39578 12.2534 4.30178L12.183 4.22243C12.0996 4.12843 12.117 3.98228 12.22 3.91061L12.5759 3.66314Z" fill="white"/>
<path d="M13.2823 4.55718C13.5064 4.45516 13.6909 4.75871 13.4981 4.91231L13.1589 5.18251C13.0607 5.26076 12.9164 5.23498 12.8511 5.1275L12.796 5.03676C12.7307 4.92928 12.7738 4.78861 12.888 4.73663L13.2823 4.55718Z" fill="white"/>
<path d="M13.7999 5.52162C14.0381 5.45984 14.1679 5.79073 13.9516 5.90875L13.5713 6.11634C13.4611 6.17646 13.3235 6.12615 13.2775 6.00899L13.2387 5.91007C13.1928 5.79291 13.2593 5.66179 13.3807 5.63031L13.7999 5.52162Z" fill="white"/>
<path d="M14.1361 6.52607C14.3814 6.50495 14.4545 6.85292 14.2218 6.93316L13.8123 7.0743C13.6937 7.11518 13.5663 7.04258 13.5404 6.91935L13.5185 6.81534C13.4926 6.69213 13.58 6.57396 13.7048 6.5632L14.1361 6.52607Z" fill="white"/>
<path d="M12.6577 7.35525C12.6577 7.5096 12.7822 7.63473 12.9359 7.63473C13.0896 7.63473 13.2142 7.5096 13.2142 7.35525C13.2142 7.2009 13.0896 7.07578 12.9359 7.07578C12.7822 7.07578 12.6577 7.2009 12.6577 7.35525Z" fill="white"/>
<path d="M11.5446 5.74824C11.5446 5.864 11.6381 5.95785 11.7533 5.95785C11.8686 5.95785 11.962 5.864 11.962 5.74824C11.962 5.63248 11.8686 5.53864 11.7533 5.53864C11.6381 5.53864 11.5446 5.63248 11.5446 5.74824Z" fill="white"/>
<path d="M10.0142 4.80501C10.0142 4.90148 10.092 4.97969 10.1881 4.97969C10.2841 4.97969 10.362 4.90148 10.362 4.80501C10.362 4.70854 10.2841 4.63034 10.1881 4.63034C10.092 4.63034 10.0142 4.70854 10.0142 4.80501Z" fill="white"/>
<path d="M4.86636 5.11943C4.86636 5.23519 4.9598 5.32903 5.07506 5.32903C5.19032 5.32903 5.28375 5.23519 5.28375 5.11943C5.28375 5.00366 5.19032 4.90982 5.07506 4.90982C4.9598 4.90982 4.86636 5.00366 4.86636 5.11943Z" fill="white"/>
<path d="M4.65765 4.56048C4.65765 4.63766 4.71994 4.70022 4.79678 4.70022C4.87362 4.70022 4.93591 4.63766 4.93591 4.56048C4.93591 4.48331 4.87362 4.42075 4.79678 4.42075C4.71994 4.42075 4.65765 4.48331 4.65765 4.56048Z" fill="white"/>
<path fill-rule="evenodd" clip-rule="evenodd" d="M6.32721 8.019C6.32721 8.92583 7.05913 9.66093 7.96201 9.66093C8.86483 9.66093 9.5968 8.92583 9.5968 8.019C9.5968 7.11217 8.86483 6.37708 7.96201 6.37708C7.05913 6.37708 6.32721 7.11217 6.32721 8.019ZM7.02288 8.019C7.02288 8.53995 7.44334 8.96224 7.96201 8.96224C8.48069 8.96224 8.90114 8.53995 8.90114 8.019C8.90114 7.49806 8.48069 7.07577 7.96201 7.07577C7.44334 7.07577 7.02288 7.49806 7.02288 8.019Z" fill="white"/>
<path fill-rule="evenodd" clip-rule="evenodd" d="M4.72723 7.98408C4.72723 9.72053 6.12878 11.1282 7.85769 11.1282C9.58652 11.1282 10.9881 9.72053 10.9881 7.98408C10.9881 6.24763 9.58652 4.83997 7.85769 4.83997C6.12878 4.83997 4.72723 6.24763 4.72723 7.98408ZM5.07506 8.01901C5.07506 9.58177 6.33644 10.8487 7.89247 10.8487C9.44844 10.8487 10.7099 9.58177 10.7099 8.01901C10.7099 6.45621 9.44844 5.18931 7.89247 5.18931C6.33644 5.18931 5.07506 6.45621 5.07506 8.01901Z" fill="white"/>
<path d="M4.47847 8.04927C4.41904 8.02628 4.41904 7.94188 4.47847 7.91889L4.84134 7.77859C4.8869 7.76099 4.93589 7.79473 4.93589 7.84378V8.12437C4.93589 8.17342 4.8869 8.20717 4.84134 8.18956L4.47847 8.04927Z" fill="white"/>
<path d="M7.86228 4.5203C7.88517 4.4606 7.96927 4.4606 7.99216 4.5203L8.13185 4.88474C8.14938 4.93051 8.11571 4.97971 8.06687 4.97971H7.78757C7.73873 4.97971 7.70513 4.93051 7.72266 4.88474L7.86228 4.5203Z" fill="white"/>
<path d="M8.75705 4.62142C8.79455 4.5697 8.8758 4.59157 8.88248 4.65518L8.92345 5.04351C8.9286 5.09228 8.88345 5.13105 8.83629 5.11836L8.56651 5.04575C8.51935 5.03305 8.49952 4.97679 8.52825 4.93715L8.75705 4.62142Z" fill="white"/>
<path d="M9.59532 4.95176C9.64485 4.91155 9.71769 4.95377 9.70781 5.01696L9.64729 5.40272C9.63971 5.45116 9.58607 5.47688 9.54378 5.45236L9.3019 5.31208C9.2596 5.28757 9.25494 5.22807 9.29292 5.19724L9.59532 4.95176Z" fill="white"/>
<path d="M10.1111 5.30244C10.167 5.27183 10.2311 5.32652 10.21 5.38689L10.0815 5.75543C10.0654 5.80172 10.008 5.81733 9.97074 5.78558L9.75794 5.6039C9.72073 5.57214 9.72678 5.51277 9.7697 5.48931L10.1111 5.30244Z" fill="white"/>
<path d="M10.5292 5.70979C10.5895 5.68908 10.6435 5.75382 10.6126 5.80977L10.4242 6.15133C10.4005 6.19422 10.3413 6.19992 10.31 6.16233L10.1306 5.94727C10.0992 5.90968 10.1152 5.85219 10.1614 5.8363L10.5292 5.70979Z" fill="white"/>
<path d="M10.9035 6.23305C10.9666 6.22389 11.0077 6.29756 10.967 6.3468L10.7188 6.6474C10.6877 6.68515 10.6285 6.67975 10.6046 6.63698L10.468 6.39227C10.4441 6.3495 10.4704 6.29597 10.5187 6.28895L10.9035 6.23305Z" fill="white"/>
<path d="M11.055 6.73019C11.1187 6.73086 11.1481 6.80999 11.1004 6.85238L10.8092 7.1112C10.7727 7.14369 10.715 7.12923 10.698 7.08325L10.6003 6.82042C10.5833 6.77447 10.6174 6.72563 10.6663 6.72614L11.055 6.73019Z" fill="white"/>
<path d="M11.2959 7.23918C11.3587 7.25001 11.3752 7.33281 11.3214 7.36704L10.993 7.57623C10.9519 7.6025 10.8972 7.5791 10.8876 7.53096L10.8327 7.25588C10.8231 7.20781 10.8645 7.16505 10.9126 7.1733L11.2959 7.23918Z" fill="white"/>
<path d="M11.3259 8.57537C11.3799 8.60925 11.364 8.69219 11.3013 8.70344L10.9186 8.77219C10.8705 8.78085 10.8288 8.73837 10.838 8.69023L10.8909 8.41474C10.9001 8.3666 10.9546 8.3427 10.996 8.36869L11.3259 8.57537Z" fill="white"/>
<path d="M11.1607 9.19029C11.2076 9.23354 11.1769 9.31214 11.1132 9.31172L10.7244 9.30893C10.6756 9.30858 10.6423 9.25918 10.6602 9.21349L10.7623 8.95239C10.7802 8.90676 10.838 8.89335 10.8741 8.92646L11.1607 9.19029Z" fill="white"/>
<path d="M10.8578 9.81127C10.8952 9.86305 10.8495 9.93389 10.7872 9.92076L10.4067 9.84055C10.3589 9.83049 10.3361 9.77536 10.3626 9.73421L10.5144 9.49868C10.5409 9.45753 10.6003 9.45585 10.629 9.49554L10.8578 9.81127Z" fill="white"/>
<path d="M5.2428 4.52393C6.94715 3.12655 9.86888 3.33616 11.4341 5.25756" stroke="white" stroke-width="0.4" stroke-miterlimit="4.62023" stroke-linecap="round"/>
<path d="M12.3036 7.02427C12.8949 15.4436 0.477555 13.0331 4.1993 5.34744" stroke="white" stroke-width="0.4" stroke-miterlimit="4.62023" stroke-linecap="round"/>
<path d="M10.3723 10.4277C10.3972 10.4866 10.3368 10.5452 10.279 10.5183L9.92633 10.354C9.88202 10.3334 9.87207 10.2746 9.9072 10.2405L10.1079 10.0453C10.143 10.0112 10.2013 10.0231 10.2203 10.0683L10.3723 10.4277Z" fill="white"/>
<path d="M9.66182 10.9785C9.6708 11.0418 9.59734 11.0829 9.54843 11.042L9.24986 10.7918C9.21236 10.7604 9.21793 10.701 9.26057 10.6771L9.50461 10.5406C9.54725 10.5168 9.60047 10.5433 9.60735 10.5919L9.66182 10.9785Z" fill="white"/>
<path d="M8.96351 11.2885C8.95829 11.3522 8.87766 11.3761 8.83892 11.3253L8.60246 11.0153C8.57276 10.9764 8.59119 10.9196 8.63801 10.9058L8.90598 10.8266C8.95286 10.8127 8.99892 10.8503 8.99495 10.8992L8.96351 11.2885Z" fill="white"/>
<path d="M11.3759 7.91889C11.4353 7.94188 11.4353 8.02628 11.3759 8.04927L11.0131 8.18956C10.9675 8.20717 10.9185 8.17342 10.9185 8.12437V7.84378C10.9185 7.79473 10.9675 7.76099 11.0131 7.77859L11.3759 7.91889Z" fill="white"/>
<path d="M7.99216 11.4478C7.96927 11.5076 7.88517 11.5076 7.86228 11.4478L7.72266 11.0834C7.70513 11.0376 7.73873 10.9884 7.78757 10.9884H8.06687C8.11571 10.9884 8.14938 11.0376 8.13185 11.0834L7.99216 11.4478Z" fill="white"/>
<path d="M7.09735 11.3467C7.05986 11.3984 6.97867 11.3766 6.97192 11.313L6.93094 10.9246C6.9258 10.8759 6.97095 10.837 7.01812 10.8498L7.28796 10.9224C7.33512 10.9351 7.35488 10.9913 7.32615 11.031L7.09735 11.3467Z" fill="white"/>
<path d="M6.25905 11.0164C6.20953 11.0566 6.1367 11.0144 6.1466 10.9512L6.20708 10.5654C6.21467 10.517 6.26829 10.4912 6.31058 10.5158L6.55249 10.6561C6.59477 10.6806 6.59941 10.7401 6.56144 10.7709L6.25905 11.0164Z" fill="white"/>
<path d="M5.74337 10.6657C5.68744 10.6963 5.62337 10.6416 5.64442 10.5812L5.77298 10.2127C5.78913 10.1664 5.84648 10.1508 5.88368 10.1826L6.09653 10.3642C6.13374 10.396 6.12764 10.4553 6.08477 10.4788L5.74337 10.6657Z" fill="white"/>
<path d="M5.32519 10.2584C5.26494 10.2791 5.21095 10.2144 5.24181 10.1584L5.43029 9.81681C5.45395 9.77391 5.5131 9.76825 5.54446 9.80584L5.72383 10.0209C5.75519 10.0585 5.73924 10.116 5.69304 10.1319L5.32519 10.2584Z" fill="white"/>
<path d="M4.95089 9.73513C4.88786 9.74428 4.84673 9.67057 4.88739 9.62138L5.13557 9.32074C5.16673 9.28301 5.22591 9.28839 5.24979 9.33115L5.38642 9.5759C5.4103 9.61866 5.38402 9.67218 5.3357 9.67924L4.95089 9.73513Z" fill="white"/>
<path d="M4.55854 8.72893C4.49578 8.7181 4.47924 8.63531 4.53302 8.60107L4.86135 8.39188C4.90258 8.36561 4.95722 8.38902 4.96682 8.43716L5.02173 8.71223C5.03132 8.7603 4.98991 8.80306 4.94178 8.79482L4.55854 8.72893Z" fill="white"/>
<path d="M4.65147 9.27834C4.58783 9.28071 4.55473 9.20309 4.60036 9.15851L4.87894 8.88609C4.91393 8.85186 4.9722 8.86352 4.99142 8.90866L5.10138 9.16655C5.1206 9.21161 5.08881 9.26206 5.04002 9.26387L4.65147 9.27834Z" fill="white"/>
<path d="M4.52851 7.39277C4.47448 7.35888 4.49039 7.27595 4.55309 7.2647L4.93581 7.19588C4.98388 7.18728 5.02561 7.22976 5.01638 7.2779L4.96353 7.5534C4.95429 7.60154 4.89983 7.62543 4.8584 7.59944L4.52851 7.39277Z" fill="white"/>
<path d="M4.69373 6.77783C4.64678 6.73462 4.67753 6.65601 4.74122 6.65647L5.13002 6.65921C5.17885 6.65955 5.21213 6.70899 5.19428 6.75463L5.09211 7.01577C5.07425 7.06139 5.01635 7.07481 4.98036 7.04169L4.69373 6.77783Z" fill="white"/>
<path d="M4.9967 6.15683C4.95923 6.1051 5.00492 6.0342 5.06726 6.04734L5.44776 6.12759C5.49555 6.13767 5.5184 6.19277 5.49187 6.23393L5.3401 6.46946C5.31357 6.51064 5.25418 6.51226 5.22545 6.47261L4.9967 6.15683Z" fill="white"/>
<path d="M5.48214 5.54047C5.45724 5.4816 5.51767 5.42286 5.57544 5.44977L5.92815 5.6141C5.97245 5.63473 5.98235 5.69358 5.94726 5.72769L5.74654 5.9228C5.71146 5.9569 5.65322 5.94504 5.63413 5.89991L5.48214 5.54047Z" fill="white"/>
<path d="M6.19258 4.98964C6.18365 4.92631 6.25711 4.88522 6.30602 4.92619L6.60458 5.17634C6.64208 5.20775 6.63653 5.26718 6.59387 5.29104L6.34983 5.42753C6.30717 5.45139 6.25395 5.42484 6.2471 5.37629L6.19258 4.98964Z" fill="white"/>
<path d="M6.891 4.67972C6.89615 4.61596 6.97685 4.59211 7.01553 4.64289L7.25199 4.95289C7.28169 4.99181 7.26325 5.04855 7.21644 5.0624L6.94847 5.14163C6.90163 5.15548 6.85553 5.11782 6.85949 5.06895L6.891 4.67972Z" fill="white"/>
</svg>
